<?xml version="1.0" encoding="UTF-8" standalone="no"?>
<svg xmlns="http://www.w3.org/2000/svg" width="128" height="128" viewBox="0 0 128 128">
  <defs>
    <linearGradient id="surface" x1="0" y1="0" x2="1" y2="1">
      <stop offset="0" stop-color="#34363b"/>
      <stop offset="1" stop-color="#15161a"/>
    </linearGradient>
  </defs>
  <rect x="4" y="4" width="120" height="120" rx="27" fill="url(#surface)"/>
  <circle cx="64" cy="64" r="44" fill="none" stroke="#70747d" stroke-width="5"/>
  <g fill="#e62d3a">
    <path d="M63 58c-5-18 2-31 18-35 7 17 1 31-14 40z"/>
    <path d="M70 64c18-5 31 2 35 18-17 7-31 1-40-14z"/>
    <path d="M64 70c5 18-2 31-18 35-7-17-1-31 14-40z"/>
    <path d="M58 64c-18 5-31-2-35-18 17-7 31-1 40 14z"/>
  </g>
  <circle cx="64" cy="64" r="11" fill="#f6f7f9"/>
  <circle cx="64" cy="64" r="5" fill="#e62d3a"/>
</svg>
